<?xml version="1.0" standalone="no"?>
<!DOCTYPE svg PUBLIC "-//W3C//DTD SVG 20010904//EN"
 "http://www.w3.org/TR/2001/REC-SVG-20010904/DTD/svg10.dtd">
<svg version="1.0" xmlns="http://www.w3.org/2000/svg"
 width="256.000000pt" height="256.000000pt" viewBox="0 0 256.000000 256.000000"
 preserveAspectRatio="xMidYMid meet">

<g transform="translate(0.000000,256.000000) scale(0.100000,-0.100000)"
fill="#000000" stroke="none">
<path d="M855 2185 c-184 -35 -381 -123 -448 -200 -34 -39 -118 -226 -162
-359 -74 -224 -126 -484 -140 -702 -6 -85 -4 -108 10 -138 24 -49 140 -157
217 -200 81 -45 250 -101 356 -117 95 -14 94 -15 162 82 l41 59 -26 10 c-14 6
-32 10 -38 10 -27 1 -184 72 -253 115 -76 48 -98 80 -77 114 18 29 51 23 126
-23 94 -59 197 -101 327 -134 99 -25 119 -27 330 -27 214 0 230 2 334 28 131
35 247 82 330 137 86 55 126 51 126 -12 0 -24 -11 -35 -70 -73 -80 -53 -178
-98 -258 -121 -32 -9 -60 -18 -65 -21 -8 -5 64 -112 94 -139 18 -16 27 -16
101 -5 103 16 273 71 347 113 100 56 197 144 232 210 23 42 -15 376 -66 592
-61 258 -177 545 -250 618 -77 77 -303 167 -476 190 -91 12 -92 12 -110 -11
-11 -13 -19 -29 -19 -37 0 -12 56 -34 89 -34 26 0 219 -69 281 -100 101 -51
126 -93 74 -126 -25 -17 -27 -16 -102 23 -345 183 -839 183 -1184 0 -75 -39
-77 -40 -102 -23 -31 20 -33 49 -6 76 44 44 246 126 367 150 84 17 92 23 73
57 -19 34 -59 38 -165 18z m152 -766 c95 -36 145 -176 101 -279 -40 -90 -136
-137 -216 -105 -84 34 -129 120 -119 224 13 124 126 201 234 160z m702 -19
c73 -51 102 -181 60 -267 -59 -122 -189 -144 -278 -48 -93 101 -66 264 54 334
33 19 126 8 164 -19z"/>
</g>
</svg>
